<svg viewBox="0 0 200 200">
<path d="M139.7,192.4c-0.5,0-1-0.1-1.5-0.3l-99.7-41.4c-1.6-0.7-2.6-2.3-2.5-4c0.1-1.7,1.3-3.2,3-3.6l96.7-24.2v-15.2L70.4,76.6
	C68.9,76,68,74.5,68,72.9V56.8l-26.6,6.7c-0.4,0.2-0.9,0.2-1.4,0.2c-2.2,0-4-1.8-4-4c0,0,0,0,0,0V20c0-1.3,0.7-2.6,1.8-3.3
	c1.1-0.7,2.5-0.9,3.8-0.4l32,13.3c1.5,0.6,2.5,2.1,2.5,3.7v13.3L166,24c2.1-0.5,4.3,0.8,4.9,2.9c0.5,2.1-0.8,4.3-2.9,4.9l-92,23
	v15.5l65.3,27.1c1.5,0.6,2.5,2.1,2.5,3.7v15.9l19.3-4.8V66.2c0-2.2,1.8-4,4-4s4,1.8,4,4v49c0,1.8-1.2,3.4-3,3.9l-24.3,6.1v63.2
	c0,1.3-0.7,2.6-1.8,3.3C141.2,192.2,140.5,192.4,139.7,192.4z M52.7,148l83,34.4v-55.2L52.7,148z M44,26v28.5l24-6V35.9L44,26z"/>
</svg>
